<?xml version="1.0" standalone="no"?>
<!DOCTYPE svg PUBLIC "-//W3C//DTD SVG 20010904//EN"
 "http://www.w3.org/TR/2001/REC-SVG-20010904/DTD/svg10.dtd">
<svg version="1.0" xmlns="http://www.w3.org/2000/svg"
 width="1600.000000pt" height="1600.000000pt" viewBox="0 0 1600.000000 1600.000000"
 preserveAspectRatio="xMidYMid meet">
<metadata>
Created by potrace 1.14, written by Peter Selinger 2001-2017
</metadata>
<g transform="translate(0.000000,1600.000000) scale(0.100000,-0.100000)"
fill="#000000" stroke="none">
<path d="M0 8000 l0 -8000 8000 0 8000 0 0 8000 0 8000 -8000 0 -8000 0 0
-8000z m12755 4031 c54 -32 179 -146 238 -219 74 -91 192 -259 223 -317 15
-27 41 -72 58 -100 30 -47 156 -298 226 -450 98 -212 221 -540 376 -1000 122
-361 125 -372 122 -445 -8 -169 -126 -283 -293 -283 -142 0 -251 83 -294 224
-59 195 -242 725 -311 904 -115 293 -160 399 -251 582 -142 286 -254 456 -393
595 -44 45 -86 97 -97 123 -71 160 8 338 178 401 56 21 171 13 218 -15z
m-7430 -62 c64 -24 133 -87 157 -145 23 -54 110 -338 237 -774 133 -456 406
-1546 586 -2340 20 -85 44 -191 55 -235 10 -44 38 -163 60 -265 23 -102 66
-293 96 -425 30 -132 77 -339 104 -460 45 -201 71 -314 204 -895 24 -107 55
-242 69 -300 14 -58 51 -213 82 -345 46 -193 163 -659 252 -1005 28 -106 125
-456 154 -551 16 -53 29 -99 29 -103 0 -3 -16 12 -37 35 -58 64 -113 91 -198
97 -161 10 -276 -76 -315 -235 l-15 -63 -48 158 c-172 568 -410 1512 -667
2647 -38 171 -85 378 -104 460 -19 83 -60 263 -91 400 -122 541 -304 1337
-356 1555 -182 767 -371 1499 -496 1930 -25 85 -54 187 -65 225 -10 39 -37
128 -60 200 -33 107 -39 139 -35 185 17 195 216 319 402 249z m6416 -15 c-59
-75 -66 -210 -15 -305 32 -58 103 -120 161 -140 59 -21 160 -16 211 9 l43 21
-49 -57 c-196 -231 -383 -609 -600 -1217 -68 -190 -206 -618 -266 -825 -13
-47 -45 -155 -69 -240 -62 -211 -144 -512 -212 -770 -32 -118 -72 -271 -91
-340 -18 -69 -110 -426 -204 -795 -244 -957 -357 -1391 -445 -1710 -25 -88
-53 -194 -64 -235 -34 -135 -186 -652 -261 -890 -26 -85 -61 -195 -76 -244
-36 -114 -71 -161 -153 -203 -53 -28 -74 -33 -130 -33 -37 0 -88 7 -114 16
-95 32 -177 137 -193 247 -5 41 1 73 49 225 74 236 131 428 161 537 13 50 42
153 64 230 98 339 239 874 457 1730 106 418 200 786 241 945 20 74 53 203 74
285 223 859 483 1761 600 2075 15 41 38 107 50 145 34 107 146 398 196 511 24
55 44 104 44 107 0 13 141 299 198 402 113 205 213 344 346 483 64 66 81 79
47 36z m-9151 -188 c71 -142 247 -201 392 -132 32 15 74 46 94 69 24 27 35 35
32 22 -3 -11 -39 -137 -81 -280 -147 -508 -223 -794 -428 -1605 -55 -217 -109
-417 -121 -444 -28 -60 -103 -129 -165 -150 -60 -21 -147 -20 -208 1 -102 34
-195 165 -195 273 0 38 56 270 179 750 169 651 296 1110 423 1523 l43 139 6
-59 c3 -32 16 -80 29 -107z"/>
</g>
</svg>
